<svg width="78" height="78" viewBox="0 0 78 78" fill="none" xmlns="http://www.w3.org/2000/svg">
<rect width="78" height="78" rx="7.8" fill="#D4EDFF"/>
<path d="M15.6619 20.5385L30.2488 16.8462L31.6163 52.5385L15.2061 56.2308L15.6619 20.5385Z" fill="#43A9C5" stroke="black"/>
<path d="M64.23 19.4223C63.9904 19.2356 63.7115 19.106 63.4143 19.0431C63.1172 18.9803 62.8096 18.986 62.515 19.0598L47.2325 22.8798L31.895 15.2098C31.4677 14.9966 30.9782 14.9434 30.515 15.0598L14.515 19.0598C14.0823 19.1679 13.6982 19.4176 13.4237 19.7691C13.1492 20.1206 13.0001 20.5538 13 20.9998V56.9998C13 57.3037 13.0693 57.6036 13.2026 57.8767C13.3359 58.1498 13.5297 58.389 13.7693 58.576C14.0088 58.763 14.2878 58.8929 14.5851 58.956C14.8824 59.019 15.1902 59.0135 15.485 58.9398L30.7675 55.1198L46.105 62.7898C46.3834 62.9271 46.6896 62.9989 47 62.9998C47.1635 62.9997 47.3264 62.9795 47.485 62.9398L63.485 58.9398C63.9177 58.8316 64.3018 58.582 64.5763 58.2305C64.8508 57.879 64.9999 57.4458 65 56.9998V20.9998C65.0001 20.6956 64.9307 20.3954 64.7973 20.122C64.6639 19.8487 64.4699 19.6094 64.23 19.4223ZM33 20.2348L45 26.2348V57.7648L33 51.7648V20.2348ZM17 22.5623L29 19.5623V51.4373L17 54.4373V22.5623ZM61 55.4373L49 58.4373V26.5623L61 23.5623V55.4373Z" fill="#4E7EA1"/>
</svg>
