<svg width="78" height="78" viewBox="0 0 78 78" fill="none" xmlns="http://www.w3.org/2000/svg">
<rect width="78" height="78" rx="7.8" fill="#C8F2CE"/>
<rect x="55.4805" y="16.4258" width="9.14286" height="6.53061" transform="rotate(49.3755 55.4805 16.4258)" fill="#3CB64C"/>
<path d="M64.415 21.5851L56.415 13.5851C56.2293 13.3992 56.0087 13.2516 55.7659 13.151C55.5231 13.0503 55.2628 12.9985 55 12.9985C54.7372 12.9985 54.4769 13.0503 54.2341 13.151C53.9913 13.2516 53.7707 13.3992 53.585 13.5851L29.585 37.5851C29.3993 37.771 29.2521 37.9916 29.1517 38.2344C29.0514 38.4772 28.9998 38.7374 29 39.0001V47.0001C29 47.5305 29.2107 48.0392 29.5858 48.4143C29.9609 48.7894 30.4696 49.0001 31 49.0001H39C39.2627 49.0003 39.5229 48.9488 39.7657 48.8484C40.0085 48.748 40.2291 48.6008 40.415 48.4151L64.415 24.4151C64.601 24.2294 64.7485 24.0088 64.8491 23.766C64.9498 23.5232 65.0016 23.2629 65.0016 23.0001C65.0016 22.7373 64.9498 22.477 64.8491 22.2342C64.7485 21.9914 64.601 21.7709 64.415 21.5851ZM38.1725 45.0001H33V39.8276L49 23.8276L54.1725 29.0001L38.1725 45.0001ZM57 26.1726L51.8275 21.0001L55 17.8276L60.1725 23.0001L57 26.1726ZM63 39.0001V59.0001C63 60.061 62.5786 61.0784 61.8284 61.8285C61.0783 62.5787 60.0609 63.0001 59 63.0001H19C17.9391 63.0001 16.9217 62.5787 16.1716 61.8285C15.4214 61.0784 15 60.061 15 59.0001V19.0001C15 17.9392 15.4214 16.9218 16.1716 16.1717C16.9217 15.4215 17.9391 15.0001 19 15.0001H39C39.5304 15.0001 40.0391 15.2108 40.4142 15.5859C40.7893 15.961 41 16.4697 41 17.0001C41 17.5305 40.7893 18.0392 40.4142 18.4143C40.0391 18.7894 39.5304 19.0001 39 19.0001H19V59.0001H59V39.0001C59 38.4697 59.2107 37.961 59.5858 37.5859C59.9609 37.2108 60.4696 37.0001 61 37.0001C61.5304 37.0001 62.0391 37.2108 62.4142 37.5859C62.7893 37.961 63 38.4697 63 39.0001Z" fill="#4C9355"/>
</svg>
