<svg width="26" height="26" viewBox="0 0 26 26" fill="none" xmlns="http://www.w3.org/2000/svg">
<rect x="4" y="4.00098" width="18" height="5" fill="#00BA13"/>
<path d="M21.125 3.25H18.6875V2.4375C18.6875 2.22201 18.6019 2.01535 18.4495 1.86298C18.2972 1.7106 18.0905 1.625 17.875 1.625C17.6595 1.625 17.4528 1.7106 17.3005 1.86298C17.1481 2.01535 17.0625 2.22201 17.0625 2.4375V3.25H8.9375V2.4375C8.9375 2.22201 8.8519 2.01535 8.69952 1.86298C8.54715 1.7106 8.34049 1.625 8.125 1.625C7.90951 1.625 7.70285 1.7106 7.55048 1.86298C7.3981 2.01535 7.3125 2.22201 7.3125 2.4375V3.25H4.875C4.44402 3.25 4.0307 3.4212 3.72595 3.72595C3.4212 4.0307 3.25 4.44402 3.25 4.875V21.125C3.25 21.556 3.4212 21.9693 3.72595 22.274C4.0307 22.5788 4.44402 22.75 4.875 22.75H21.125C21.556 22.75 21.9693 22.5788 22.274 22.274C22.5788 21.9693 22.75 21.556 22.75 21.125V4.875C22.75 4.44402 22.5788 4.0307 22.274 3.72595C21.9693 3.4212 21.556 3.25 21.125 3.25ZM7.3125 4.875V5.6875C7.3125 5.90299 7.3981 6.10965 7.55048 6.26202C7.70285 6.4144 7.90951 6.5 8.125 6.5C8.34049 6.5 8.54715 6.4144 8.69952 6.26202C8.8519 6.10965 8.9375 5.90299 8.9375 5.6875V4.875H17.0625V5.6875C17.0625 5.90299 17.1481 6.10965 17.3005 6.26202C17.4528 6.4144 17.6595 6.5 17.875 6.5C18.0905 6.5 18.2972 6.4144 18.4495 6.26202C18.6019 6.10965 18.6875 5.90299 18.6875 5.6875V4.875H21.125V8.125H4.875V4.875H7.3125ZM21.125 21.125H4.875V9.75H21.125V21.125ZM14.2188 13.4062C14.2188 13.6473 14.1473 13.8829 14.0134 14.0834C13.8794 14.2838 13.6891 14.44 13.4664 14.5322C13.2437 14.6245 12.9986 14.6486 12.7622 14.6016C12.5258 14.5546 12.3087 14.4385 12.1382 14.268C11.9678 14.0976 11.8517 13.8804 11.8047 13.644C11.7576 13.4076 11.7818 13.1626 11.874 12.9399C11.9663 12.7172 12.1225 12.5268 12.3229 12.3929C12.5233 12.259 12.759 12.1875 13 12.1875C13.3232 12.1875 13.6332 12.3159 13.8618 12.5445C14.0903 12.773 14.2188 13.083 14.2188 13.4062ZM18.6875 13.4062C18.6875 13.6473 18.616 13.8829 18.4821 14.0834C18.3482 14.2838 18.1578 14.44 17.9351 14.5322C17.7124 14.6245 17.4674 14.6486 17.231 14.6016C16.9946 14.5546 16.7774 14.4385 16.607 14.268C16.4365 14.0976 16.3204 13.8804 16.2734 13.644C16.2264 13.4076 16.2505 13.1626 16.3428 12.9399C16.435 12.7172 16.5912 12.5268 16.7916 12.3929C16.9921 12.259 17.2277 12.1875 17.4688 12.1875C17.792 12.1875 18.102 12.3159 18.3305 12.5445C18.5591 12.773 18.6875 13.083 18.6875 13.4062ZM9.75 17.4688C9.75 17.7098 9.67852 17.9454 9.5446 18.1459C9.41069 18.3463 9.22034 18.5025 8.99765 18.5947C8.77495 18.687 8.5299 18.7111 8.29348 18.6641C8.05707 18.6171 7.83991 18.501 7.66946 18.3305C7.49902 18.1601 7.38294 17.9429 7.33592 17.7065C7.28889 17.4701 7.31303 17.2251 7.40527 17.0024C7.49752 16.7797 7.65373 16.5893 7.85415 16.4554C8.05457 16.3215 8.2902 16.25 8.53125 16.25C8.85448 16.25 9.16448 16.3784 9.39304 16.607C9.6216 16.8355 9.75 17.1455 9.75 17.4688ZM14.2188 17.4688C14.2188 17.7098 14.1473 17.9454 14.0134 18.1459C13.8794 18.3463 13.6891 18.5025 13.4664 18.5947C13.2437 18.687 12.9986 18.7111 12.7622 18.6641C12.5258 18.6171 12.3087 18.501 12.1382 18.3305C11.9678 18.1601 11.8517 17.9429 11.8047 17.7065C11.7576 17.4701 11.7818 17.2251 11.874 17.0024C11.9663 16.7797 12.1225 16.5893 12.3229 16.4554C12.5233 16.3215 12.759 16.25 13 16.25C13.3232 16.25 13.6332 16.3784 13.8618 16.607C14.0903 16.8355 14.2188 17.1455 14.2188 17.4688ZM18.6875 17.4688C18.6875 17.7098 18.616 17.9454 18.4821 18.1459C18.3482 18.3463 18.1578 18.5025 17.9351 18.5947C17.7124 18.687 17.4674 18.7111 17.231 18.6641C16.9946 18.6171 16.7774 18.501 16.607 18.3305C16.4365 18.1601 16.3204 17.9429 16.2734 17.7065C16.2264 17.4701 16.2505 17.2251 16.3428 17.0024C16.435 16.7797 16.5912 16.5893 16.7916 16.4554C16.9921 16.3215 17.2277 16.25 17.4688 16.25C17.792 16.25 18.102 16.3784 18.3305 16.607C18.5591 16.8355 18.6875 17.1455 18.6875 17.4688Z" fill="#4D4D4D"/>
</svg>
