<svg width="16" height="16" viewBox="0 0 16 16" fill="none" xmlns="http://www.w3.org/2000/svg">
<path d="M13.8981 9.90411L10.9538 8.58474L10.9456 8.58099C10.7928 8.51561 10.626 8.48937 10.4605 8.50465C10.2949 8.51993 10.1358 8.57624 9.99751 8.66849C9.98122 8.67924 9.96557 8.69093 9.95063 8.70349L8.42938 10.0004C7.46563 9.53224 6.47063 8.54474 6.00251 7.59349L7.30126 6.04911C7.31376 6.03349 7.32563 6.01786 7.33688 6.00099C7.42715 5.86305 7.48192 5.70494 7.49631 5.54072C7.5107 5.3765 7.48428 5.21127 7.41938 5.05974V5.05224L6.09626 2.10286C6.01047 1.9049 5.86296 1.74 5.67575 1.63276C5.48854 1.52553 5.27166 1.48171 5.05751 1.50786C4.21061 1.6193 3.43324 2.03522 2.87059 2.67792C2.30794 3.32063 1.99847 4.14617 2.00001 5.00036C2.00001 9.96286 6.03751 14.0004 11 14.0004C11.8542 14.0019 12.6797 13.6924 13.3224 13.1298C13.9652 12.5671 14.3811 11.7898 14.4925 10.9429C14.5187 10.7288 14.475 10.512 14.3679 10.3248C14.2607 10.1376 14.096 9.99 13.8981 9.90411ZM11 13.0004C8.87898 12.998 6.8455 12.1544 5.34571 10.6547C3.84592 9.15487 3.00232 7.12138 3.00001 5.00036C2.99765 4.39004 3.21754 3.79973 3.61859 3.33968C4.01964 2.87962 4.57444 2.58128 5.17938 2.50036C5.17913 2.50286 5.17913 2.50537 5.17938 2.50786L6.49188 5.44536L5.20001 6.99161C5.18689 7.0067 5.17498 7.02279 5.16438 7.03974C5.07033 7.18406 5.01515 7.35023 5.0042 7.52215C4.99325 7.69407 5.0269 7.8659 5.10188 8.02099C5.66813 9.17911 6.83501 10.3372 8.00563 10.9029C8.16186 10.9771 8.33468 11.0096 8.50722 10.9971C8.67976 10.9846 8.8461 10.9276 8.99001 10.8316C9.00605 10.8208 9.02149 10.8091 9.03626 10.7966L10.5556 9.50036L13.4931 10.816C13.4931 10.816 13.4981 10.816 13.5 10.816C13.4201 11.4218 13.1222 11.9777 12.662 12.3797C12.2019 12.7818 11.611 13.0024 11 13.0004Z" fill="black"/>
</svg>
