<svg width="34" height="34" viewBox="0 0 34 34" fill="none" xmlns="http://www.w3.org/2000/svg">
<path d="M30.5017 7.74814L26.2517 3.49814C26.153 3.39935 26.0359 3.32098 25.9069 3.26751C25.7779 3.21404 25.6396 3.18652 25.5 3.18652C25.3604 3.18652 25.2221 3.21404 25.0931 3.26751C24.9641 3.32098 24.847 3.39935 24.7483 3.49814L11.9983 16.2481C11.8996 16.3469 11.8214 16.4641 11.7681 16.5931C11.7148 16.7221 11.6874 16.8603 11.6875 16.9999V21.2499C11.6875 21.5317 11.7994 21.8019 11.9987 22.0012C12.198 22.2004 12.4682 22.3124 12.75 22.3124H17C17.1396 22.3125 17.2778 22.2851 17.4068 22.2318C17.5358 22.1784 17.653 22.1002 17.7517 22.0016L30.5017 9.25158C30.6005 9.1529 30.6789 9.03572 30.7323 8.90673C30.7858 8.77775 30.8133 8.63949 30.8133 8.49986C30.8133 8.36023 30.7858 8.22197 30.7323 8.09299C30.6789 7.964 30.6005 7.84682 30.5017 7.74814ZM16.5604 20.1874H13.8125V17.4395L22.3125 8.93947L25.0604 11.6874L16.5604 20.1874ZM26.5625 10.1853L23.8146 7.43736L25.5 5.75197L28.2479 8.49986L26.5625 10.1853ZM29.75 16.9999V27.6249C29.75 28.1884 29.5261 28.7289 29.1276 29.1275C28.7291 29.526 28.1886 29.7499 27.625 29.7499H6.375C5.81142 29.7499 5.27091 29.526 4.8724 29.1275C4.47388 28.7289 4.25 28.1884 4.25 27.6249V6.37486C4.25 5.81127 4.47388 5.27077 4.8724 4.87226C5.27091 4.47374 5.81142 4.24986 6.375 4.24986H17C17.2818 4.24986 17.552 4.3618 17.7513 4.56106C17.9506 4.76032 18.0625 5.03057 18.0625 5.31236C18.0625 5.59415 17.9506 5.8644 17.7513 6.06366C17.552 6.26292 17.2818 6.37486 17 6.37486H6.375V27.6249H27.625V16.9999C27.625 16.7181 27.7369 16.4478 27.9362 16.2486C28.1355 16.0493 28.4057 15.9374 28.6875 15.9374C28.9693 15.9374 29.2395 16.0493 29.4388 16.2486C29.6381 16.4478 29.75 16.7181 29.75 16.9999Z" fill="#666666"/>
</svg>
