<svg width="34" height="34" viewBox="0 0 34 34" fill="none" xmlns="http://www.w3.org/2000/svg">
<rect x="5" y="16" width="9" height="12" fill="#3CB64C"/>
<rect x="20" y="16" width="9" height="12" fill="#3CB64C"/>
<path d="M29 16.124V19.75H5V16.124L17 4L29 16.124Z" fill="#3CB64C"/>
<path d="M29.1271 14.4339L18.5021 3.80892C18.1036 3.4107 17.5634 3.18701 17 3.18701C16.4367 3.18701 15.8964 3.4107 15.4979 3.80892L4.8729 14.4339C4.67462 14.6307 4.51744 14.865 4.41051 15.1231C4.30357 15.3812 4.24902 15.658 4.25001 15.9374V28.6874C4.25001 28.9691 4.36196 29.2394 4.56121 29.4387C4.76047 29.6379 5.03072 29.7499 5.31251 29.7499H13.8125C14.0943 29.7499 14.3646 29.6379 14.5638 29.4387C14.7631 29.2394 14.875 28.9691 14.875 28.6874V21.2499H19.125V28.6874C19.125 28.9691 19.237 29.2394 19.4362 29.4387C19.6355 29.6379 19.9057 29.7499 20.1875 29.7499H28.6875C28.9693 29.7499 29.2396 29.6379 29.4388 29.4387C29.6381 29.2394 29.75 28.9691 29.75 28.6874V15.9374C29.751 15.658 29.6965 15.3812 29.5895 15.1231C29.4826 14.865 29.3254 14.6307 29.1271 14.4339ZM27.625 27.6249H21.25V20.1874C21.25 19.9056 21.1381 19.6353 20.9388 19.4361C20.7396 19.2368 20.4693 19.1249 20.1875 19.1249H13.8125C13.5307 19.1249 13.2605 19.2368 13.0612 19.4361C12.862 19.6353 12.75 19.9056 12.75 20.1874V27.6249H6.37501V15.9374L17 5.31235L27.625 15.9374V27.6249Z" fill="#3CB64C"/>
</svg>
