<svg width="34" height="34" viewBox="0 0 34 34" fill="none" xmlns="http://www.w3.org/2000/svg">
<path d="M30.4034 6.5996C30.2762 6.50043 30.128 6.43155 29.9701 6.39818C29.8123 6.36481 29.6489 6.36784 29.4923 6.40702L21.3735 8.4364L13.2255 4.36171C12.9984 4.24847 12.7384 4.22021 12.4923 4.28202L3.99234 6.40702C3.76248 6.46448 3.55842 6.59712 3.41259 6.78385C3.26676 6.97059 3.18754 7.20072 3.1875 7.43765V26.5626C3.18752 26.7241 3.22434 26.8834 3.29515 27.0285C3.36597 27.1736 3.46891 27.3006 3.59617 27.4C3.72343 27.4993 3.87166 27.5684 4.0296 27.6019C4.18753 27.6354 4.35103 27.6324 4.50766 27.5933L12.6265 25.5639L20.7745 29.6386C20.9225 29.7115 21.0851 29.7497 21.25 29.7501C21.3369 29.7501 21.4234 29.7394 21.5077 29.7183L30.0077 27.5933C30.2375 27.5358 30.4416 27.4032 30.5874 27.2164C30.7332 27.0297 30.8125 26.7996 30.8125 26.5626V7.43765C30.8125 7.27605 30.7757 7.11657 30.7048 6.97135C30.6339 6.82613 30.5309 6.69898 30.4034 6.5996ZM13.8125 7.03124L20.1875 10.2187V26.9691L13.8125 23.7816V7.03124ZM5.3125 8.26773L11.6875 6.67398V23.6076L5.3125 25.2013V8.26773ZM28.6875 25.7326L22.3125 27.3263V10.3927L28.6875 8.79898V25.7326Z" fill="#666666"/>
</svg>
