<svg width="34" height="34" viewBox="0 0 34 34" fill="none" xmlns="http://www.w3.org/2000/svg">
<path d="M13.2814 15.4634C13.443 15.3701 13.5771 15.2359 13.6704 15.0744C13.7637 14.9128 13.8127 14.7295 13.8127 14.543V4.98047C13.8117 4.81107 13.7703 4.64436 13.6918 4.49423C13.6134 4.3441 13.5001 4.21492 13.3616 4.11744C13.223 4.01997 13.0632 3.95703 12.8954 3.93388C12.7276 3.91074 12.5567 3.92805 12.3969 3.98438C9.29571 5.08196 6.68773 7.24976 5.04178 10.0981C3.39583 12.9464 2.81988 16.2885 3.41746 19.5234C3.44843 19.6907 3.51913 19.8481 3.62359 19.9824C3.72806 20.1167 3.86324 20.2239 4.01777 20.2951C4.15703 20.3602 4.30896 20.3938 4.46269 20.3934C4.64918 20.3934 4.8324 20.3444 4.99394 20.2512L13.2814 15.4634ZM11.6877 6.59016V13.9294L5.32863 17.599C5.31269 17.3984 5.31269 17.1966 5.31269 17C5.31458 14.8463 5.91074 12.7348 7.03553 10.8981C8.16032 9.06142 9.77012 7.57073 11.6877 6.59016ZM17.0002 3.1875C16.7184 3.1875 16.4482 3.29944 16.2489 3.4987C16.0496 3.69796 15.9377 3.96821 15.9377 4.25V16.4448L5.47074 22.5423C5.34928 22.6127 5.24298 22.7065 5.15798 22.8182C5.07297 22.9299 5.01096 23.0574 4.97552 23.1933C4.94007 23.3291 4.9319 23.4706 4.95148 23.6096C4.97106 23.7487 5.01799 23.8824 5.08957 24.0032C6.31637 26.0888 8.06949 27.8155 10.1734 29.0105C12.2774 30.2054 14.6583 30.8268 17.0779 30.8123C19.4975 30.7977 21.8708 30.1479 23.9603 28.9277C26.0497 27.7076 27.782 25.96 28.9837 23.8598C30.1854 21.7597 30.8143 19.3808 30.8075 16.9611C30.8007 14.5415 30.1584 12.1661 28.9449 10.0728C27.7314 7.97948 25.9893 6.24163 23.893 5.03327C21.7968 3.8249 19.4198 3.1884 17.0002 3.1875ZM17.0002 28.6875C15.1454 28.6825 13.3181 28.2385 11.6679 27.3918C10.0176 26.5451 8.59122 25.3197 7.50543 23.8159L17.5354 17.9722C17.6968 17.879 17.8308 17.7451 17.9241 17.5838C18.0173 17.4224 18.0665 17.2394 18.0667 17.0531V5.36031C21.0635 5.63221 23.8399 7.04948 25.818 9.31707C27.7961 11.5847 28.8234 14.5278 28.6859 17.5338C28.5485 20.5398 27.257 23.3769 25.0802 25.4545C22.9035 27.5322 20.0093 28.6902 17.0002 28.6875Z" fill="#666666"/>
</svg>
