<svg width="36" height="36" viewBox="0 0 36 36" fill="none" xmlns="http://www.w3.org/2000/svg">
<path d="M13.32 15.4801V6.12012L7.92004 9.00012L5.04004 12.6001V20.1601L13.32 15.4801Z" fill="#3CB64C" stroke="black"/>
<path d="M14.0627 16.373C14.2338 16.2742 14.3758 16.1322 14.4745 15.9611C14.5733 15.79 14.6253 15.596 14.6252 15.3984V5.27344C14.6242 5.09408 14.5803 4.91756 14.4972 4.7586C14.4142 4.59964 14.2943 4.46285 14.1476 4.35964C14.0009 4.25643 13.8316 4.1898 13.6539 4.16529C13.4763 4.14078 13.2953 4.15911 13.1261 4.21875C9.84252 5.3809 7.08112 7.67622 5.33836 10.6921C3.59559 13.708 2.98576 17.2466 3.61849 20.6719C3.65128 20.849 3.72614 21.0157 3.83675 21.1578C3.94736 21.3 4.09049 21.4136 4.25411 21.4889C4.40157 21.5579 4.56243 21.5934 4.72521 21.593C4.92266 21.593 5.11666 21.5412 5.28771 21.4425L14.0627 16.373ZM12.3752 6.97781V14.7487L5.64208 18.6342C5.62521 18.4219 5.62521 18.2081 5.62521 18C5.6272 15.7196 6.25843 13.4839 7.44938 11.5392C8.64034 9.59445 10.3448 8.01606 12.3752 6.97781ZM18.0002 3.375C17.7018 3.375 17.4157 3.49353 17.2047 3.7045C16.9937 3.91548 16.8752 4.20163 16.8752 4.5V17.4122L5.79255 23.8683C5.66394 23.9428 5.55139 24.0421 5.46139 24.1604C5.37138 24.2788 5.30572 24.4137 5.26819 24.5576C5.23066 24.7014 5.22201 24.8512 5.24274 24.9984C5.26347 25.1456 5.31317 25.2873 5.38896 25.4152C6.68792 27.6234 8.54417 29.4517 10.7719 30.7169C12.9996 31.9822 15.5206 32.6401 18.0825 32.6247C20.6444 32.6094 23.1573 31.9213 25.3697 30.6294C27.5821 29.3374 29.4162 27.487 30.6886 25.2634C31.961 23.0397 32.6269 20.5208 32.6197 17.9589C32.6125 15.3969 31.9324 12.8818 30.6475 10.6653C29.3627 8.44886 27.5181 6.60879 25.2985 5.32934C23.0789 4.04989 20.5622 3.37596 18.0002 3.375ZM18.0002 30.375C16.0363 30.3697 14.1015 29.8996 12.3542 29.0031C10.6069 28.1066 9.09658 26.8091 7.94692 25.2169L18.5669 19.0294C18.7378 18.9307 18.8797 18.7889 18.9784 18.6181C19.0771 18.4473 19.1292 18.2535 19.1294 18.0562V5.67563C22.3025 5.96351 25.2423 7.46416 27.3367 9.86513C29.4312 12.2661 30.5189 15.3824 30.3733 18.5652C30.2278 21.748 28.8603 24.752 26.5556 26.9519C24.2508 29.1517 21.1863 30.3778 18.0002 30.375Z" fill="#434A5A"/>
</svg>
