<svg width="55" height="24" viewBox="0 0 55 24" fill="none" xmlns="http://www.w3.org/2000/svg">
<rect width="55" height="24" rx="5" fill="#FF9179"/>
<path d="M16.9013 6.83105C17.7519 6.83105 18.4924 6.92204 19.123 7.104C19.7535 7.28597 20.2402 7.54622 20.5829 7.88477C20.9257 8.22331 21.0992 8.62533 21.1034 9.09082C21.0992 9.55208 20.9257 9.95199 20.5829 10.2905C20.2402 10.6291 19.7535 10.8872 19.123 11.0649C18.4924 11.2427 17.7519 11.3294 16.9013 11.3252C16.0549 11.3294 15.3144 11.2427 14.6796 11.0649C14.0449 10.883 13.554 10.6248 13.207 10.2905C12.86 9.95199 12.6865 9.55208 12.6865 9.09082C12.6865 8.62533 12.86 8.22331 13.207 7.88477C13.554 7.54622 14.0449 7.28597 14.6796 7.104C15.3144 6.92204 16.0549 6.83105 16.9013 6.83105ZM16.9013 8.08789C16.0888 8.08789 15.4625 8.17464 15.0224 8.34814C14.5865 8.51742 14.3707 8.76497 14.3749 9.09082C14.3707 9.41243 14.5865 9.65576 15.0224 9.8208C15.4583 9.98584 16.0846 10.0684 16.9013 10.0684C17.7096 10.0684 18.3316 9.98584 18.7675 9.8208C19.2076 9.65576 19.4277 9.41243 19.4277 9.09082C19.4277 8.76497 19.2076 8.51742 18.7675 8.34814C18.3316 8.17464 17.7096 8.08789 16.9013 8.08789ZM20.913 18.041H12.8515V14.1055H20.913V18.041ZM14.4511 16.7461H19.3261V15.3877H14.4511V16.7461ZM22.1699 13.293H11.6327V11.998H22.1699V13.293ZM27.1558 8.25293C27.1515 8.75228 27.2446 9.22624 27.4351 9.6748C27.6297 10.1234 27.9302 10.5233 28.3364 10.8745C28.7469 11.2215 29.259 11.486 29.8726 11.668L29.0601 12.9375C28.4168 12.7344 27.8646 12.436 27.4033 12.0425C26.9463 11.6489 26.5845 11.1813 26.3179 10.6396C26.0513 11.2236 25.681 11.7293 25.207 12.1567C24.7331 12.5799 24.1639 12.8994 23.4995 13.1152L22.687 11.8457C23.3049 11.6468 23.8211 11.3612 24.2358 10.9888C24.6548 10.6164 24.9637 10.1953 25.1626 9.72559C25.3657 9.25163 25.4673 8.76074 25.4673 8.25293V7.14844H27.1558V8.25293ZM32.3989 18.168H30.7739V15.2988H24.4517V14.0039H32.3989V18.168ZM32.3989 13.5088H30.7739V6.61523H32.3989V13.5088ZM44.3546 12.4805H39.8858V13.2168H43.0723V16.1748H36.6358V16.873H43.377V18.0918H35.0489V15.0322H41.4727V14.4355H35.0362V13.2168H38.2608V12.4805H33.8174V11.1982H44.3546V12.4805ZM43.0216 10.5889H35.1251V6.94531H43.0216V10.5889ZM36.712 9.34473H41.4092V8.20215H36.712V9.34473Z" fill="white"/>
</svg>
