<svg width="55" height="24" viewBox="0 0 55 24" fill="none" xmlns="http://www.w3.org/2000/svg">
<rect width="55" height="24" rx="5" fill="#59B9FF"/>
<path d="M20.967 6.95801C21.5468 6.95801 22.0715 7.07015 22.5412 7.29443C23.011 7.51872 23.3791 7.83187 23.6457 8.23389C23.9166 8.6359 24.052 9.09082 24.052 9.59863C24.052 10.098 23.9166 10.5487 23.6457 10.9507C23.3791 11.3485 23.011 11.6616 22.5412 11.8901C22.0715 12.1144 21.5468 12.2266 20.967 12.2266C20.3788 12.2266 19.8477 12.1144 19.3737 11.8901C18.8998 11.6616 18.5274 11.3485 18.2566 10.9507C17.99 10.5487 17.8567 10.098 17.8567 9.59863C17.8567 9.09082 17.99 8.6359 18.2566 8.23389C18.5274 7.83187 18.8977 7.51872 19.3674 7.29443C19.8414 7.07015 20.3746 6.95801 20.967 6.95801ZM20.967 8.27832C20.6708 8.27832 20.4042 8.33122 20.1672 8.43701C19.9345 8.53857 19.7525 8.69092 19.6213 8.89404C19.4901 9.09294 19.4266 9.3278 19.4309 9.59863C19.4266 9.86947 19.4901 10.1043 19.6213 10.3032C19.7525 10.5021 19.9345 10.6545 20.1672 10.7603C20.4042 10.866 20.6708 10.9189 20.967 10.9189C21.259 10.9189 21.5193 10.866 21.7478 10.7603C21.9805 10.6545 22.1625 10.5021 22.2937 10.3032C22.4249 10.1043 22.4904 9.86947 22.4904 9.59863C22.4904 9.32357 22.4249 9.08659 22.2937 8.8877C22.1625 8.6888 21.9805 8.53857 21.7478 8.43701C21.5193 8.33122 21.259 8.27832 20.967 8.27832ZM27.3527 12.4043H25.7277V6.61523H27.3527V12.4043ZM27.3527 16.0225H21.2082V16.7715H27.6701V18.041H19.6213V14.8418H25.7404V14.1309H19.5959V12.8867H27.3527V16.0225ZM37.9373 9.87793H39.4988V11.2109H37.9373V15.1338H36.3123V6.62793H37.9373V9.87793ZM38.3562 17.9648H30.4471V14.2578H32.0594V16.6699H38.3562V17.9648ZM30.7264 9.11621H33.0877V7.44043H34.7127V13.293H29.114V7.44043H30.7264V9.11621ZM33.0877 12.0234V10.3604H30.7264V12.0234H33.0877Z" fill="white"/>
</svg>
