<svg width="41" height="41" viewBox="0 0 41 41" fill="none" xmlns="http://www.w3.org/2000/svg">
<path d="M35.1239 17.4057L22.3114 4.59321C21.8309 4.11301 21.1793 3.84326 20.5 3.84326C19.8207 3.84326 19.1692 4.11301 18.6886 4.59321L5.87615 17.4057C5.63704 17.643 5.4475 17.9255 5.31855 18.2368C5.1896 18.548 5.12382 18.8818 5.12502 19.2187V34.5937C5.12502 34.9335 5.26 35.2594 5.50029 35.4997C5.74057 35.7399 6.06646 35.8749 6.40627 35.8749H16.6563C16.9961 35.8749 17.322 35.7399 17.5622 35.4997C17.8025 35.2594 17.9375 34.9335 17.9375 34.5937V25.6249H23.0625V34.5937C23.0625 34.9335 23.1975 35.2594 23.4378 35.4997C23.6781 35.7399 24.004 35.8749 24.3438 35.8749H34.5938C34.9336 35.8749 35.2595 35.7399 35.4997 35.4997C35.74 35.2594 35.875 34.9335 35.875 34.5937V19.2187C35.8762 18.8818 35.8104 18.548 35.6815 18.2368C35.5525 17.9255 35.363 17.643 35.1239 17.4057ZM33.3125 33.3124H25.625V24.3437C25.625 24.0039 25.49 23.678 25.2497 23.4377C25.0095 23.1974 24.6836 23.0624 24.3438 23.0624H16.6563C16.3165 23.0624 15.9906 23.1974 15.7503 23.4377C15.51 23.678 15.375 24.0039 15.375 24.3437V33.3124H7.68752V19.2187L20.5 6.40618L33.3125 19.2187V33.3124Z" fill="#757575"/>
</svg>
