<svg width="55" height="24" viewBox="0 0 55 24" fill="none" xmlns="http://www.w3.org/2000/svg">
<rect width="55" height="24" rx="5" fill="#58CC02"/>
<path d="M21.7962 18.168H20.2474V12.3789H19.2698V17.6348H17.7337V14.3276L16.8196 15.54C15.8125 15.0111 15.0867 14.1076 14.6424 12.8296C14.2319 14.3022 13.5104 15.3454 12.4778 15.959L11.4749 14.7148C12.3001 14.2493 12.8968 13.5596 13.2649 12.6455C13.6373 11.7272 13.8235 10.6693 13.8235 9.47168V9.10352H11.8685V7.80859H17.1624V9.10352H15.3977V9.47168C15.3977 10.5677 15.5818 11.541 15.95 12.3916C16.3224 13.2422 16.917 13.8791 17.7337 14.3022V6.78027H19.2698V11.0586H20.2474V6.61523H21.7962V18.168ZM32.0506 9.34473H33.5233V10.6904H32.0506V13.4199H30.4256V6.61523H32.0506V9.34473ZM32.0506 16.416H25.8553V17.0127H32.4315V18.0918H24.2303V15.4385H30.4256V14.9053H24.2176V13.8262H32.0506V16.416ZM23.5575 12.1758C24.3954 12.1758 25.0386 12.1694 25.4872 12.1567V11.6489C24.8439 11.5728 24.3425 11.4056 23.9828 11.1475C23.6273 10.8851 23.4517 10.5508 23.4559 10.1445C23.4517 9.83561 23.5638 9.57113 23.7923 9.35107C24.0251 9.12679 24.3552 8.9554 24.7826 8.83691C25.21 8.71842 25.7115 8.65918 26.287 8.65918C26.8583 8.65918 27.3555 8.71842 27.7787 8.83691C28.2019 8.95117 28.5298 9.12044 28.7626 9.34473C28.9953 9.56901 29.1138 9.83561 29.118 10.1445C29.1138 10.5508 28.9339 10.883 28.5785 11.1411C28.223 11.3993 27.73 11.5685 27.0995 11.6489V12.0996C28.1278 12.0531 29.0588 11.9727 29.8924 11.8584L30.0067 12.8613C28.9191 13.0475 27.8062 13.166 26.6678 13.2168C25.5295 13.2676 24.2557 13.293 22.8465 13.293L22.6815 12.1758H23.5575ZM29.6005 8.41797H22.9862V7.33887H25.4872V6.51367H27.0995V7.33887H29.6005V8.41797ZM26.287 9.66211C25.868 9.66211 25.5485 9.70231 25.3285 9.78271C25.1084 9.86312 25.0005 9.98372 25.0047 10.1445C25.0005 10.3138 25.1084 10.4429 25.3285 10.5317C25.5485 10.6206 25.868 10.6693 26.287 10.6777C26.6975 10.6693 27.0127 10.6206 27.2328 10.5317C27.4528 10.4429 27.565 10.3138 27.5692 10.1445C27.5565 9.82292 27.1291 9.66211 26.287 9.66211ZM44.4379 13.3818H33.9008V12.0869H36.2748V10.7031C35.8474 10.5127 35.5195 10.2757 35.2909 9.99219C35.0667 9.70866 34.9545 9.38281 34.9545 9.01465C34.9545 8.55339 35.1259 8.1556 35.4687 7.82129C35.8115 7.48275 36.3002 7.22461 36.935 7.04688C37.5698 6.86914 38.3145 6.78027 39.1694 6.78027C40.0157 6.78027 40.7542 6.86914 41.3847 7.04688C42.0152 7.22461 42.5019 7.48275 42.8447 7.82129C43.1917 8.1556 43.3673 8.55339 43.3715 9.01465C43.3673 9.38281 43.2488 9.71289 43.016 10.0049C42.7833 10.2926 42.449 10.5296 42.0131 10.7158V12.0869H44.4379V13.3818ZM39.1567 13.9912C39.9903 13.9912 40.7076 14.0716 41.3085 14.2324C41.9094 14.3932 42.3707 14.6281 42.6923 14.937C43.0139 15.2459 43.1769 15.6204 43.1811 16.0605C43.1769 16.5091 43.0139 16.89 42.6923 17.2031C42.3707 17.5163 41.9094 17.7533 41.3085 17.9141C40.7076 18.0749 39.9903 18.1553 39.1567 18.1553C38.3103 18.1553 37.5846 18.0749 36.9794 17.9141C36.3743 17.7533 35.9109 17.5163 35.5893 17.2031C35.2677 16.89 35.1069 16.5091 35.1069 16.0605C35.1069 15.6204 35.2677 15.2459 35.5893 14.937C35.9109 14.6281 36.3743 14.3932 36.9794 14.2324C37.5846 14.0716 38.3103 13.9912 39.1567 13.9912ZM39.1567 15.21C37.5444 15.21 36.7446 15.4935 36.7573 16.0605C36.7446 16.653 37.5444 16.9492 39.1567 16.9492C40.7436 16.9492 41.5434 16.653 41.5561 16.0605C41.5434 15.4935 40.7436 15.21 39.1567 15.21ZM39.1694 8.02441C38.3484 8.02441 37.72 8.10905 37.2841 8.27832C36.8525 8.44759 36.6388 8.69303 36.643 9.01465C36.6388 9.3278 36.8525 9.56478 37.2841 9.72559C37.7158 9.88639 38.3442 9.9668 39.1694 9.9668C39.9861 9.9668 40.6103 9.88639 41.0419 9.72559C41.4778 9.56478 41.6957 9.3278 41.6957 9.01465C41.6957 8.69303 41.4778 8.44759 41.0419 8.27832C40.6061 8.10905 39.9819 8.02441 39.1694 8.02441ZM40.4008 12.0869V11.1221C40.0369 11.1644 39.6264 11.1855 39.1694 11.1855C38.6869 11.1855 38.268 11.1623 37.9125 11.1157V12.0869H40.4008Z" fill="white"/>
</svg>
