<svg width="24" height="24" viewBox="0 0 24 24" fill="none" xmlns="http://www.w3.org/2000/svg">
<g clip-path="url(#clip0_1367_2204)">
<path d="M7.29289 5.29289C7.68342 4.90237 8.31658 4.90237 8.70711 5.29289C9.09763 5.68342 9.09763 6.31658 8.70711 6.70711L7.29289 5.29289ZM5 9L4.29289 9.70711C3.90237 9.31658 3.90237 8.68342 4.29289 8.29289L5 9ZM8.70711 11.2929C9.09763 11.6834 9.09763 12.3166 8.70711 12.7071C8.31658 13.0976 7.68342 13.0976 7.29289 12.7071L8.70711 11.2929ZM5 18C4.44771 18 4 17.5523 4 17C4 16.4477 4.44771 16 5 16V18ZM8 6L8.70711 6.70711L5.70711 9.70711L5 9L4.29289 8.29289L7.29289 5.29289L8 6ZM5 9L5.70711 8.29289L8.70711 11.2929L8 12L7.29289 12.7071L4.29289 9.70711L5 9ZM5 9V8H16V9V10H5V9ZM20 13H21C21 15.7614 18.7614 18 16 18V17V16C17.6569 16 19 14.6569 19 13H20ZM16 9V8C18.7614 8 21 10.2386 21 13H20H19C19 11.3431 17.6569 10 16 10V9ZM5 17V16H16V17V18H5V17Z" fill="#292929"/>
</g>
<defs>
<clipPath id="clip0_1367_2204">
<rect width="24" height="24" fill="white" transform="matrix(-1 0 0 1 24 0)"/>
</clipPath>
</defs>
</svg>
