<svg width="45" height="45" viewBox="0 0 45 45" fill="none" xmlns="http://www.w3.org/2000/svg">
<rect x="3.59961" y="10.7998" width="27.9" height="13.5" fill="#3CB64C"/>
<path d="M44.898 20.5664L42.4371 14.4141C42.2283 13.8935 41.8681 13.4477 41.403 13.1343C40.9379 12.8208 40.3894 12.6543 39.8285 12.6562H33.75V11.25C33.75 10.877 33.6018 10.5194 33.3381 10.2556C33.0744 9.99191 32.7167 9.84375 32.3438 9.84375H5.625C4.87908 9.84375 4.16371 10.1401 3.63626 10.6675C3.10882 11.195 2.8125 11.9103 2.8125 12.6562V32.3438C2.8125 33.0897 3.10882 33.805 3.63626 34.3325C4.16371 34.8599 4.87908 35.1562 5.625 35.1562H8.61328C8.92308 36.3662 9.62677 37.4386 10.6134 38.2045C11.6 38.9703 12.8135 39.386 14.0625 39.386C15.3115 39.386 16.525 38.9703 17.5116 38.2045C18.4982 37.4386 19.2019 36.3662 19.5117 35.1562H28.3008C28.6106 36.3662 29.3143 37.4386 30.3009 38.2045C31.2875 38.9703 32.501 39.386 33.75 39.386C34.999 39.386 36.2125 38.9703 37.1991 38.2045C38.1857 37.4386 38.8894 36.3662 39.1992 35.1562H42.1875C42.9334 35.1562 43.6488 34.8599 44.1762 34.3325C44.7037 33.805 45 33.0897 45 32.3438V21.0938C45.0005 20.913 44.9659 20.7339 44.898 20.5664ZM33.75 15.4688H39.8285L41.516 19.6875H33.75V15.4688ZM5.625 12.6562H30.9375V23.9062H5.625V12.6562ZM14.0625 36.5625C13.5062 36.5625 12.9625 36.3975 12.5 36.0885C12.0374 35.7795 11.677 35.3402 11.4641 34.8263C11.2512 34.3124 11.1955 33.7469 11.304 33.2013C11.4126 32.6557 11.6804 32.1546 12.0738 31.7613C12.4671 31.3679 12.9682 31.1001 13.5138 30.9915C14.0594 30.883 14.6249 30.9387 15.1388 31.1516C15.6527 31.3645 16.092 31.7249 16.401 32.1875C16.71 32.65 16.875 33.1937 16.875 33.75C16.875 34.4959 16.5787 35.2113 16.0512 35.7387C15.5238 36.2662 14.8084 36.5625 14.0625 36.5625ZM28.3008 32.3438H19.5117C19.2019 31.1338 18.4982 30.0614 17.5116 29.2955C16.525 28.5297 15.3115 28.114 14.0625 28.114C12.8135 28.114 11.6 28.5297 10.6134 29.2955C9.62677 30.0614 8.92308 31.1338 8.61328 32.3438H5.625V26.7188H30.9375V28.8826C30.2909 29.2564 29.7248 29.7548 29.2722 30.3489C28.8196 30.943 28.4894 31.6211 28.3008 32.3438ZM33.75 36.5625C33.1937 36.5625 32.65 36.3975 32.1875 36.0885C31.7249 35.7795 31.3645 35.3402 31.1516 34.8263C30.9387 34.3124 30.883 33.7469 30.9915 33.2013C31.1001 32.6557 31.3679 32.1546 31.7613 31.7613C32.1546 31.3679 32.6557 31.1001 33.2013 30.9915C33.7469 30.883 34.3124 30.9387 34.8263 31.1516C35.3402 31.3645 35.7795 31.7249 36.0885 32.1875C36.3975 32.65 36.5625 33.1937 36.5625 33.75C36.5625 34.4959 36.2662 35.2113 35.7387 35.7387C35.2113 36.2662 34.4959 36.5625 33.75 36.5625ZM42.1875 32.3438H39.1992C38.8857 31.1367 38.1807 30.0678 37.1946 29.3044C36.2085 28.541 34.9971 28.1262 33.75 28.125V22.5H42.1875V32.3438Z" fill="#434A5A"/>
</svg>
