<svg width="78" height="78" viewBox="0 0 78 78" fill="none" xmlns="http://www.w3.org/2000/svg">
<rect width="78" height="78" rx="7.8" fill="#C8F2CE"/>
<path d="M14.4062 55.2855V24.1866L15.2289 21.7314H30.859L39.4968 27.8694L58.0061 28.2786L60.0628 35.6441L23.8666 36.4625L14.4062 55.2855Z" fill="#3CB64C" stroke="black" stroke-width="0.234657"/>
<path d="M68.25 34.66C67.8788 34.1454 67.3905 33.7264 66.8254 33.4378C66.2602 33.1491 65.6346 32.9991 65 33H61V29C61 27.9391 60.5786 26.9217 59.8284 26.1716C59.0783 25.4214 58.0609 25 57 25H39.6675L32.735 19.8C32.0414 19.283 31.2001 19.0025 30.335 19H17C15.9391 19 14.9217 19.4214 14.1716 20.1716C13.4214 20.9217 13 21.9391 13 23V59C13 59.5304 13.2107 60.0391 13.5858 60.4142C13.9609 60.7893 14.4696 61 15 61H59.775C60.1948 61 60.6039 60.868 60.9445 60.6225C61.2851 60.3771 61.5398 60.0307 61.6725 59.6325L68.795 38.265C68.9953 37.6638 69.0503 37.0236 68.9556 36.397C68.8609 35.7704 68.6191 35.1752 68.25 34.66ZM30.335 23L37.8 28.6C38.1462 28.8596 38.5673 29 39 29H57V33H24.4425C23.6029 32.9999 22.7846 33.264 22.1035 33.7549C21.4224 34.2458 20.913 34.9385 20.6475 35.735L17 46.675V23H30.335ZM58.335 57H17.775L24.4425 37H65L58.335 57Z" fill="#4C9355"/>
</svg>
