<svg width="78" height="78" viewBox="0 0 78 78" fill="none" xmlns="http://www.w3.org/2000/svg">
<rect width="78" height="78" rx="7.8" fill="#E9E9E9"/>
<rect x="12.1211" y="22.3599" width="39.68" height="19.2" fill="#AAAAAA"/>
<path d="M70.857 36.2505L67.357 27.5005C67.06 26.7602 66.5476 26.1261 65.8862 25.6803C65.2247 25.2346 64.4446 24.9977 63.647 25.0005H55.002V23.0005C55.002 22.4701 54.7912 21.9613 54.4162 21.5863C54.0411 21.2112 53.5324 21.0005 53.002 21.0005H15.002C13.9411 21.0005 12.9237 21.4219 12.1735 22.1721C11.4234 22.9222 11.002 23.9396 11.002 25.0005V53.0005C11.002 54.0614 11.4234 55.0788 12.1735 55.8289C12.9237 56.5791 13.9411 57.0005 15.002 57.0005H19.252C19.6926 58.7213 20.6934 60.2466 22.0966 61.3358C23.4998 62.425 25.2256 63.0162 27.002 63.0162C28.7783 63.0162 30.5041 62.425 31.9073 61.3358C33.3106 60.2466 34.3114 58.7213 34.752 57.0005H47.252C47.6926 58.7213 48.6934 60.2466 50.0966 61.3358C51.4998 62.425 53.2256 63.0162 55.002 63.0162C56.7783 63.0162 58.5041 62.425 59.9073 61.3358C61.3106 60.2466 62.3114 58.7213 62.752 57.0005H67.002C68.0628 57.0005 69.0802 56.5791 69.8304 55.8289C70.5805 55.0788 71.002 54.0614 71.002 53.0005V37.0005C71.0026 36.7435 70.9534 36.4887 70.857 36.2505ZM55.002 29.0005H63.647L66.047 35.0005H55.002V29.0005ZM15.002 25.0005H51.002V41.0005H15.002V25.0005ZM27.002 59.0005C26.2108 59.0005 25.4375 58.7659 24.7797 58.3264C24.1219 57.8868 23.6092 57.2621 23.3064 56.5312C23.0037 55.8003 22.9245 54.9961 23.0788 54.2201C23.2332 53.4442 23.6141 52.7315 24.1735 52.1721C24.7329 51.6127 25.4457 51.2317 26.2216 51.0773C26.9975 50.923 27.8018 51.0022 28.5327 51.305C29.2636 51.6077 29.8883 52.1204 30.3278 52.7782C30.7674 53.436 31.002 54.2094 31.002 55.0005C31.002 56.0614 30.5805 57.0788 29.8304 57.8289C29.0802 58.5791 28.0628 59.0005 27.002 59.0005ZM47.252 53.0005H34.752C34.3114 51.2797 33.3106 49.7544 31.9073 48.6652C30.5041 47.576 28.7783 46.9848 27.002 46.9848C25.2256 46.9848 23.4998 47.576 22.0966 48.6652C20.6934 49.7544 19.6926 51.2797 19.252 53.0005H15.002V45.0005H51.002V48.078C50.0823 48.6096 49.2773 49.3184 48.6336 50.1634C47.9899 51.0084 47.5202 51.9727 47.252 53.0005ZM55.002 59.0005C54.2108 59.0005 53.4375 58.7659 52.7797 58.3264C52.1219 57.8868 51.6092 57.2621 51.3064 56.5312C51.0037 55.8003 50.9245 54.9961 51.0788 54.2201C51.2332 53.4442 51.6141 52.7315 52.1735 52.1721C52.7329 51.6127 53.4457 51.2317 54.2216 51.0773C54.9975 50.923 55.8018 51.0022 56.5327 51.305C57.2636 51.6077 57.8883 52.1204 58.3278 52.7782C58.7674 53.436 59.002 54.2094 59.002 55.0005C59.002 56.0614 58.5805 57.0788 57.8304 57.8289C57.0802 58.5791 56.0628 59.0005 55.002 59.0005ZM67.002 53.0005H62.752C62.3061 51.2838 61.3034 49.7636 59.9009 48.6778C58.4985 47.5921 56.7756 47.0022 55.002 47.0005V39.0005H67.002V53.0005Z" fill="#666666"/>
</svg>
