<svg width="19" height="14" viewBox="0 0 19 14" fill="none" xmlns="http://www.w3.org/2000/svg">
<path d="M3.4 1C3.4 0.779086 3.22091 0.6 3 0.6C2.77909 0.6 2.6 0.779086 2.6 1L3.4 1ZM2.71716 13.2828C2.87337 13.4391 3.12663 13.4391 3.28284 13.2828L5.82843 10.7373C5.98464 10.581 5.98464 10.3278 5.82843 10.1716C5.67222 10.0154 5.41895 10.0154 5.26274 10.1716L3 12.4343L0.737259 10.1716C0.581049 10.0154 0.327783 10.0154 0.171573 10.1716C0.0153636 10.3278 0.0153636 10.581 0.171573 10.7373L2.71716 13.2828ZM3 1L2.6 1L2.6 13L3 13L3.4 13L3.4 1L3 1Z" fill="#575757"/>
<path d="M8 2H18" stroke="#575757" stroke-linecap="round"/>
<path d="M8 5H16" stroke="#575757" stroke-linecap="round"/>
<path d="M8 8H14" stroke="#575757" stroke-linecap="round"/>
<path d="M8 11H12" stroke="#575757" stroke-linecap="round"/>
</svg>
