<svg width="55" height="24" viewBox="0 0 55 24" fill="none" xmlns="http://www.w3.org/2000/svg">
<rect width="55" height="24" rx="5" fill="#AF8AFF"/>
<path d="M27.3908 6.61523V18.168H25.7531V6.61523H27.3908ZM23.925 7.82129C23.925 11.3252 22.6936 14.2324 18.5676 16.1875L17.717 14.8926C20.7004 13.4834 22.0144 11.6553 22.2746 9.09082H18.3391V7.82129H23.925ZM34.7 7.56738V8.8877H30.866V10.792H34.5349V12.0615H30.866V14.2451C32.5227 14.2324 33.8684 14.1626 35.4109 13.915L35.5633 15.2227C33.7986 15.4893 32.2244 15.54 30.2058 15.54H29.2283V7.56738H34.7ZM37.8865 6.61523V10.9951H39.5877V12.3535H37.8865V18.168H36.2615V6.61523H37.8865Z" fill="white"/>
</svg>
