<svg width="72" height="93" viewBox="0 0 72 93" fill="none" xmlns="http://www.w3.org/2000/svg">
<g filter="url(#filter0_d_830_643)">
<path d="M35.8838 1C52.9404 1.00002 66.7676 14.8272 66.7676 31.8838C66.7676 40.4541 63.2751 48.2075 57.6377 53.8027C47.9713 65.941 42.707 70.0331 35.8838 84.002C29.5843 70.25 24.6063 66.1222 14.8037 54.4512C8.77205 48.8147 5.00001 40.7905 5 31.8838C5 14.8272 18.8272 1 35.8838 1Z" fill="#59B9FF"/>
<path d="M35.8838 1L35.8838 0.0348829H35.8838V1ZM66.7676 31.8838L67.7327 31.8838V31.8838H66.7676ZM57.6377 53.8027L56.9578 53.1177C56.9312 53.1442 56.9061 53.1721 56.8827 53.2015L57.6377 53.8027ZM35.8838 84.002L35.0064 84.4039C35.1617 84.7431 35.4987 84.9624 35.8718 84.967C36.2449 84.9716 36.5872 84.7608 36.751 84.4255L35.8838 84.002ZM14.8037 54.4512L15.5427 53.8305C15.5178 53.8007 15.491 53.7725 15.4627 53.746L14.8037 54.4512ZM5 31.8838L4.03488 31.8838L4.03488 31.8838L5 31.8838ZM35.8838 1L35.8838 1.96512C52.4074 1.96514 65.8025 15.3602 65.8025 31.8838H66.7676H67.7327C67.7327 14.2942 53.4734 0.0349063 35.8838 0.0348829L35.8838 1ZM66.7676 31.8838L65.8025 31.8838C65.8024 40.1863 62.4203 47.6961 56.9578 53.1177L57.6377 53.8027L58.3176 54.4877C64.1299 48.7189 67.7327 40.7218 67.7327 31.8838L66.7676 31.8838ZM57.6377 53.8027L56.8827 53.2015C47.2959 65.2399 41.9016 69.483 35.0166 83.5784L35.8838 84.002L36.751 84.4255C43.5124 70.5832 48.6467 66.6421 58.3927 54.404L57.6377 53.8027ZM35.8838 84.002L36.7612 83.6C30.3924 69.6967 25.2948 65.4413 15.5427 53.8305L14.8037 54.4512L14.0647 55.0719C23.9177 66.803 28.7761 70.8032 35.0064 84.4039L35.8838 84.002ZM14.8037 54.4512L15.4627 53.746C9.61799 48.2843 5.96513 40.512 5.96512 31.8838L5 31.8838L4.03488 31.8838C4.0349 41.0689 7.92611 49.3451 14.1448 55.1563L14.8037 54.4512ZM5 31.8838H5.96512C5.96512 15.3602 19.3602 1.96512 35.8838 1.96512V1V0.0348829C18.2941 0.0348829 4.03488 14.2941 4.03488 31.8838H5Z" fill="white"/>
</g>
<g clip-path="url(#clip0_830_643)">
<path d="M28.57 47.576H42.7251C44.6795 47.576 46.2638 45.9917 46.2638 44.0373V22.8047H25.0312V44.0373C25.0312 45.9917 26.6156 47.576 28.57 47.576Z" fill="white" stroke="white" stroke-width="3.53876" stroke-linecap="round" stroke-linejoin="round"/>
<path d="M30.3395 15.7271L26.8008 22.8046H44.4946L40.9558 15.7271H30.3395Z" stroke="white" stroke-width="3.53876" stroke-linecap="round" stroke-linejoin="round"/>
<path d="M21.4932 22.8047H49.8033" stroke="white" stroke-width="3.53876" stroke-linecap="round" stroke-linejoin="round"/>
<path d="M39.1865 29.8823V40.4986" stroke="#59B9FF" stroke-width="3.53876" stroke-linecap="round" stroke-linejoin="round"/>
<path d="M32.1094 29.8823V40.4986" stroke="#59B9FF" stroke-width="3.53876" stroke-linecap="round" stroke-linejoin="round"/>
</g>
<defs>
<filter id="filter0_d_830_643" x="0.0351562" y="0.034668" width="71.6973" height="92.9326" filterUnits="userSpaceOnUse" color-interpolation-filters="sRGB">
<feFlood flood-opacity="0" result="BackgroundImageFix"/>
<feColorMatrix in="SourceAlpha" type="matrix" values="0 0 0 0 0 0 0 0 0 0 0 0 0 0 0 0 0 0 127 0" result="hardAlpha"/>
<feOffset dy="4"/>
<feGaussianBlur stdDeviation="2"/>
<feComposite in2="hardAlpha" operator="out"/>
<feColorMatrix type="matrix" values="0 0 0 0 0 0 0 0 0 0 0 0 0 0 0 0 0 0 0.25 0"/>
<feBlend mode="normal" in2="BackgroundImageFix" result="effect1_dropShadow_830_643"/>
<feBlend mode="normal" in="SourceGraphic" in2="effect1_dropShadow_830_643" result="shape"/>
</filter>
<clipPath id="clip0_830_643">
<rect width="42.4652" height="42.4652" fill="white" transform="translate(14.6484 10.6514)"/>
</clipPath>
</defs>
</svg>
