<svg width="72" height="96" viewBox="0 0 72 96" fill="none" xmlns="http://www.w3.org/2000/svg">
<g filter="url(#filter0_d_830_687)">
<path d="M35.8838 4C52.9404 4.00002 66.7676 17.8272 66.7676 34.8838C66.7676 43.4541 63.2751 51.2075 57.6377 56.8027C47.9713 68.941 42.707 73.0331 35.8838 87.002C29.5843 73.25 24.6063 69.1222 14.8037 57.4512C8.77205 51.8147 5.00001 43.7905 5 34.8838C5 17.8272 18.8272 4 35.8838 4Z" fill="#F10000"/>
<path d="M35.8838 4L35.8838 3.03488H35.8838V4ZM66.7676 34.8838L67.7327 34.8838V34.8838H66.7676ZM57.6377 56.8027L56.9578 56.1177C56.9312 56.1442 56.9061 56.1721 56.8827 56.2015L57.6377 56.8027ZM35.8838 87.002L35.0064 87.4039C35.1617 87.7431 35.4987 87.9624 35.8718 87.967C36.2449 87.9716 36.5872 87.7608 36.751 87.4255L35.8838 87.002ZM14.8037 57.4512L15.5427 56.8305C15.5178 56.8007 15.491 56.7725 15.4627 56.746L14.8037 57.4512ZM5 34.8838L4.03488 34.8838L4.03488 34.8838L5 34.8838ZM35.8838 4L35.8838 4.96512C52.4074 4.96514 65.8025 18.3602 65.8025 34.8838H66.7676H67.7327C67.7327 17.2942 53.4734 3.03491 35.8838 3.03488L35.8838 4ZM66.7676 34.8838L65.8025 34.8838C65.8024 43.1863 62.4203 50.6961 56.9578 56.1177L57.6377 56.8027L58.3176 57.4877C64.1299 51.7189 67.7327 43.7218 67.7327 34.8838L66.7676 34.8838ZM57.6377 56.8027L56.8827 56.2015C47.2959 68.2399 41.9016 72.483 35.0166 86.5784L35.8838 87.002L36.751 87.4255C43.5124 73.5832 48.6467 69.6421 58.3927 57.404L57.6377 56.8027ZM35.8838 87.002L36.7612 86.6C30.3924 72.6967 25.2948 68.4413 15.5427 56.8305L14.8037 57.4512L14.0647 58.0719C23.9177 69.803 28.7761 73.8032 35.0064 87.4039L35.8838 87.002ZM14.8037 57.4512L15.4627 56.746C9.61799 51.2843 5.96513 43.512 5.96512 34.8838L5 34.8838L4.03488 34.8838C4.0349 44.0689 7.92611 52.3451 14.1448 58.1563L14.8037 57.4512ZM5 34.8838H5.96512C5.96512 18.3602 19.3602 4.96512 35.8838 4.96512V4V3.03488C18.2941 3.03488 4.03488 17.2941 4.03488 34.8838H5Z" fill="white"/>
</g>
<circle cx="35.9994" cy="34.998" r="15.2143" fill="white" stroke="white" stroke-width="3.38095" stroke-linecap="round" stroke-linejoin="round"/>
<rect x="36.0166" y="34.998" width="0.0169048" height="0.0169048" transform="rotate(90 36.0166 34.998)" stroke="#F10000" stroke-width="5.07143" stroke-linejoin="round"/>
<rect x="43.623" y="34.998" width="0.0169048" height="0.0169048" transform="rotate(90 43.623 34.998)" stroke="#F10000" stroke-width="5.07143" stroke-linejoin="round"/>
<rect x="28.4092" y="34.998" width="0.0169048" height="0.0169048" transform="rotate(90 28.4092 34.998)" stroke="#F10000" stroke-width="5.07143" stroke-linejoin="round"/>
<defs>
<filter id="filter0_d_830_687" x="0.0351562" y="3.03467" width="71.6973" height="92.9326" filterUnits="userSpaceOnUse" color-interpolation-filters="sRGB">
<feFlood flood-opacity="0" result="BackgroundImageFix"/>
<feColorMatrix in="SourceAlpha" type="matrix" values="0 0 0 0 0 0 0 0 0 0 0 0 0 0 0 0 0 0 127 0" result="hardAlpha"/>
<feOffset dy="4"/>
<feGaussianBlur stdDeviation="2"/>
<feComposite in2="hardAlpha" operator="out"/>
<feColorMatrix type="matrix" values="0 0 0 0 0 0 0 0 0 0 0 0 0 0 0 0 0 0 0.25 0"/>
<feBlend mode="normal" in2="BackgroundImageFix" result="effect1_dropShadow_830_687"/>
<feBlend mode="normal" in="SourceGraphic" in2="effect1_dropShadow_830_687" result="shape"/>
</filter>
</defs>
</svg>
