<svg width="91" height="32" viewBox="0 0 91 32" fill="none" xmlns="http://www.w3.org/2000/svg">
<rect width="90.6667" height="32" rx="5" fill="#E60000"/>
<path d="M26.4334 12.8359H28.5154V14.6133H26.4334V19.8438H24.2668V8.50261H26.4334V12.8359ZM26.992 23.6185H16.4464V18.6758H18.5962V21.8919H26.992V23.6185ZM16.8188 11.8203H19.9673V9.58594H22.1339V17.3893H14.6691V9.58594H16.8188V11.8203ZM19.9673 15.6966V13.4792H16.8188V15.6966H19.9673ZM43.0513 17.8633H29.0019V16.1198H34.9263V14.8164H30.7961V8.85807H32.9289V10.263H39.1073V8.85807H41.2571V14.8164H37.093V16.1198H43.0513V17.8633ZM41.3417 23.8893H39.192V20.6224H30.5592V18.9128H41.3417V23.8893ZM39.1073 13.1237V11.8542H32.9289V13.1237H39.1073ZM55.907 17.1523H48.3744V9.72136H55.907V17.1523ZM50.5073 15.4427H53.7573V11.431H50.5073V15.4427ZM60.4942 19.4544H58.3276V8.50261H60.4942V19.4544ZM60.9005 23.5508H50.1687V18.4388H52.3523V21.8073H60.9005V23.5508ZM75.4364 20.1315H73.2697V18.9128H70.3244V17.4401H73.2697V8.50261H75.4364V20.1315ZM75.7749 23.6185H64.2983V19.0143H66.4481V16.9661C65.3986 17.0113 64.1122 17.0339 62.5887 17.0339L62.3348 15.3242C64.3209 15.3129 66.1067 15.2791 67.6922 15.2227C69.2777 15.1662 70.7871 15.0477 72.2202 14.8672L72.3387 16.4076C71.1651 16.605 69.9238 16.7517 68.6148 16.8477V19.776H66.4481V21.8919H75.7749V23.6185ZM67.3452 9.02734C68.0844 9.0217 68.7445 9.13455 69.3257 9.36589C69.9069 9.59722 70.3611 9.92448 70.6883 10.3477C71.0212 10.7652 71.1877 11.2448 71.1877 11.7865C71.1877 12.3225 71.024 12.7964 70.6968 13.2083C70.3695 13.6202 69.9125 13.939 69.3257 14.1647C68.7445 14.3848 68.0844 14.4948 67.3452 14.4948C66.5891 14.4948 65.9177 14.3848 65.3309 14.1647C64.7441 13.939 64.2871 13.623 63.9598 13.2168C63.6326 12.8049 63.4689 12.3281 63.4689 11.7865C63.4689 11.2448 63.6297 10.7652 63.9513 10.3477C64.2786 9.92448 64.7356 9.59722 65.3224 9.36589C65.9149 9.13455 66.5891 9.0217 67.3452 9.02734ZM67.3452 10.6016C66.7866 10.6016 66.3409 10.7059 66.008 10.9147C65.6751 11.1235 65.5115 11.4141 65.5171 11.7865C65.5115 12.1532 65.6723 12.4382 65.9995 12.6413C66.3324 12.8388 66.781 12.9375 67.3452 12.9375C67.8756 12.9375 68.3044 12.8359 68.6317 12.6328C68.9646 12.4297 69.1339 12.1476 69.1395 11.7865C69.1339 11.4141 68.9646 11.1235 68.6317 10.9147C68.3044 10.7059 67.8756 10.6016 67.3452 10.6016Z" fill="white"/>
</svg>
