<svg width="34" height="34" viewBox="0 0 34 34" fill="none" xmlns="http://www.w3.org/2000/svg">
<path d="M33.923 15.5391L32.0636 10.8906C31.9059 10.4973 31.6336 10.1605 31.2822 9.92366C30.9308 9.68686 30.5164 9.56104 30.0927 9.5625H25.5V8.5C25.5 8.21821 25.3881 7.94796 25.1888 7.7487C24.9895 7.54944 24.7193 7.4375 24.4375 7.4375H4.25C3.68641 7.4375 3.14591 7.66138 2.7474 8.0599C2.34888 8.45841 2.125 8.99891 2.125 9.5625V24.4375C2.125 25.0011 2.34888 25.5416 2.7474 25.9401C3.14591 26.3386 3.68641 26.5625 4.25 26.5625H6.50781C6.74188 27.4767 7.27356 28.287 8.01902 28.8656C8.76448 29.4443 9.68132 29.7583 10.625 29.7583C11.5687 29.7583 12.4855 29.4443 13.231 28.8656C13.9764 28.287 14.5081 27.4767 14.7422 26.5625H21.3828C21.6169 27.4767 22.1486 28.287 22.894 28.8656C23.6395 29.4443 24.5563 29.7583 25.5 29.7583C26.4437 29.7583 27.3605 29.4443 28.106 28.8656C28.8514 28.287 29.3831 27.4767 29.6172 26.5625H31.875C32.4386 26.5625 32.9791 26.3386 33.3776 25.9401C33.7761 25.5416 34 25.0011 34 24.4375V15.9375C34.0004 15.801 33.9742 15.6656 33.923 15.5391ZM25.5 11.6875H30.0927L31.3677 14.875H25.5V11.6875ZM4.25 9.5625H23.375V18.0625H4.25V9.5625ZM10.625 27.625C10.2047 27.625 9.79387 27.5004 9.44441 27.2669C9.09496 27.0334 8.82259 26.7015 8.66176 26.3132C8.50092 25.9249 8.45884 25.4976 8.54083 25.0854C8.62282 24.6732 8.82521 24.2946 9.1224 23.9974C9.41959 23.7002 9.79822 23.4978 10.2104 23.4158C10.6226 23.3338 11.0499 23.3759 11.4382 23.5368C11.8265 23.6976 12.1584 23.97 12.3919 24.3194C12.6254 24.6689 12.75 25.0797 12.75 25.5C12.75 26.0636 12.5261 26.6041 12.1276 27.0026C11.7291 27.4011 11.1886 27.625 10.625 27.625ZM21.3828 24.4375H14.7422C14.5081 23.5233 13.9764 22.713 13.231 22.1344C12.4855 21.5557 11.5687 21.2417 10.625 21.2417C9.68132 21.2417 8.76448 21.5557 8.01902 22.1344C7.27356 22.713 6.74188 23.5233 6.50781 24.4375H4.25V20.1875H23.375V21.8224C22.8864 22.1048 22.4588 22.4814 22.1168 22.9303C21.7748 23.3792 21.5253 23.8915 21.3828 24.4375ZM25.5 27.625C25.0797 27.625 24.6689 27.5004 24.3194 27.2669C23.97 27.0334 23.6976 26.7015 23.5368 26.3132C23.3759 25.9249 23.3338 25.4976 23.4158 25.0854C23.4978 24.6732 23.7002 24.2946 23.9974 23.9974C24.2946 23.7002 24.6732 23.4978 25.0854 23.4158C25.4976 23.3338 25.9249 23.3759 26.3132 23.5368C26.7015 23.6976 27.0334 23.97 27.2669 24.3194C27.5004 24.6689 27.625 25.0797 27.625 25.5C27.625 26.0636 27.4011 26.6041 27.0026 27.0026C26.6041 27.4011 26.0636 27.625 25.5 27.625ZM31.875 24.4375H29.6172C29.3803 23.5255 28.8476 22.7179 28.1026 22.1411C27.3575 21.5643 26.4422 21.2509 25.5 21.25V17H31.875V24.4375Z" fill="#666666"/>
</svg>
