<svg width="36" height="36" viewBox="0 0 36 36" fill="none" xmlns="http://www.w3.org/2000/svg">
<rect x="27.2705" y="5.30176" width="5.14286" height="3.67347" transform="rotate(49.3755 27.2705 5.30176)" fill="white"/>
<path d="M32.2959 8.20397L27.7959 3.70397C27.6915 3.59937 27.5674 3.51639 27.4308 3.45978C27.2942 3.40316 27.1478 3.37402 27 3.37402C26.8522 3.37402 26.7058 3.40316 26.5692 3.45978C26.4326 3.51639 26.3085 3.59937 26.2041 3.70397L12.7041 17.204C12.5996 17.3085 12.5168 17.4326 12.4603 17.5692C12.4039 17.7058 12.3749 17.8521 12.375 17.9999V22.4999C12.375 22.7983 12.4935 23.0844 12.7045 23.2954C12.9155 23.5064 13.2016 23.6249 13.5 23.6249H18C18.1478 23.625 18.2941 23.596 18.4307 23.5396C18.5673 23.4831 18.6914 23.4003 18.7959 23.2958L32.2959 9.79585C32.4005 9.69136 32.4835 9.56729 32.5401 9.43072C32.5967 9.29414 32.6259 9.14775 32.6259 8.99991C32.6259 8.85207 32.5967 8.70567 32.5401 8.5691C32.4835 8.43253 32.4005 8.30845 32.2959 8.20397ZM17.5345 21.3749H14.625V18.4654L23.625 9.46538L26.5345 12.3749L17.5345 21.3749ZM28.125 10.7844L25.2155 7.87491L27 6.09038L29.9095 8.99991L28.125 10.7844ZM31.5 17.9999V29.2499C31.5 29.8466 31.2629 30.4189 30.841 30.8409C30.419 31.2629 29.8467 31.4999 29.25 31.4999H6.75C6.15326 31.4999 5.58097 31.2629 5.15901 30.8409C4.73705 30.4189 4.5 29.8466 4.5 29.2499V6.74991C4.5 6.15317 4.73705 5.58087 5.15901 5.15892C5.58097 4.73696 6.15326 4.49991 6.75 4.49991H18C18.2984 4.49991 18.5845 4.61843 18.7955 4.82941C19.0065 5.04039 19.125 5.32654 19.125 5.62491C19.125 5.92328 19.0065 6.20942 18.7955 6.4204C18.5845 6.63138 18.2984 6.74991 18 6.74991H6.75V29.2499H29.25V17.9999C29.25 17.7015 29.3685 17.4154 29.5795 17.2044C29.7905 16.9934 30.0766 16.8749 30.375 16.8749C30.6734 16.8749 30.9595 16.9934 31.1705 17.2044C31.3815 17.4154 31.5 17.7015 31.5 17.9999Z" fill="white"/>
</svg>
