<svg width="41" height="41" viewBox="0 0 41 41" fill="none" xmlns="http://www.w3.org/2000/svg">
<rect x="31.0576" y="6.03809" width="5.85714" height="4.18367" transform="rotate(49.3755 31.0576 6.03809)" fill="#3CB64C"/>
<path d="M36.7815 9.34355L31.6565 4.21855C31.5375 4.09942 31.3962 4.00492 31.2406 3.94044C31.0851 3.87596 30.9184 3.84277 30.75 3.84277C30.5816 3.84277 30.4149 3.87596 30.2594 3.94044C30.1038 4.00492 29.9625 4.09942 29.8435 4.21855L14.4685 19.5935C14.3496 19.7126 14.2553 19.854 14.191 20.0095C14.1266 20.165 14.0936 20.3317 14.0938 20.5V25.625C14.0938 25.9648 14.2287 26.2907 14.469 26.531C14.7093 26.7713 15.0352 26.9063 15.375 26.9063H20.5C20.6683 26.9064 20.835 26.8734 20.9905 26.8091C21.1461 26.7448 21.2874 26.6505 21.4065 26.5315L36.7815 11.1565C36.9006 11.0375 36.9951 10.8962 37.0596 10.7407C37.1241 10.5851 37.1573 10.4184 37.1573 10.25C37.1573 10.0817 37.1241 9.91493 37.0596 9.75939C36.9951 9.60385 36.9006 9.46254 36.7815 9.34355ZM19.9699 24.3438H16.6562V21.0301L26.9062 10.7801L30.2199 14.0938L19.9699 24.3438ZM32.0312 12.2824L28.7176 8.96878L30.75 6.9364L34.0636 10.25L32.0312 12.2824ZM35.875 20.5V33.3125C35.875 33.9921 35.605 34.6439 35.1245 35.1245C34.6439 35.6051 33.9921 35.875 33.3125 35.875H7.6875C7.00788 35.875 6.3561 35.6051 5.87554 35.1245C5.39498 34.6439 5.125 33.9921 5.125 33.3125V7.68753C5.125 7.00791 5.39498 6.35613 5.87554 5.87557C6.3561 5.39501 7.00788 5.12503 7.6875 5.12503H20.5C20.8398 5.12503 21.1657 5.26002 21.406 5.5003C21.6463 5.74058 21.7812 6.06647 21.7812 6.40628C21.7812 6.74609 21.6463 7.07198 21.406 7.31226C21.1657 7.55254 20.8398 7.68753 20.5 7.68753H7.6875V33.3125H33.3125V20.5C33.3125 20.1602 33.4475 19.8343 33.6878 19.5941C33.928 19.3538 34.2539 19.2188 34.5938 19.2188C34.9336 19.2188 35.2595 19.3538 35.4997 19.5941C35.74 19.8343 35.875 20.1602 35.875 20.5Z" fill="#434A5A"/>
</svg>
