<svg width="41" height="41" viewBox="0 0 41 41" fill="none" xmlns="http://www.w3.org/2000/svg">
<path d="M4.73047 31.0127V11.0383L5.25611 9.46143H15.2433L20.7625 13.4037L32.5894 13.6666L33.9035 18.3973L10.7753 18.923L4.73047 31.0127Z" fill="#3CB64C" stroke="black"/>
<path d="M39.2383 17.7197C39.0005 17.39 38.6876 17.1216 38.3256 16.9367C37.9636 16.7518 37.5628 16.6557 37.1562 16.6562H34.5938V14.0938C34.5938 13.4141 34.3238 12.7624 33.8432 12.2818C33.3626 11.8012 32.7109 11.5312 32.0312 11.5312H20.9276L16.4865 8.2C16.0422 7.86877 15.5032 7.6891 14.949 7.6875H6.40625C5.72663 7.6875 5.07485 7.95748 4.59429 8.43804C4.11373 8.9186 3.84375 9.57038 3.84375 10.25V33.3125C3.84375 33.6523 3.97874 33.9782 4.21902 34.2185C4.4593 34.4588 4.78519 34.5938 5.125 34.5938H33.809C34.0779 34.5938 34.34 34.5092 34.5582 34.3519C34.7764 34.1947 34.9395 33.9728 35.0246 33.7177L39.5874 20.0291C39.7157 19.644 39.751 19.2339 39.6903 18.8325C39.6296 18.4311 39.4747 18.0497 39.2383 17.7197ZM14.949 10.25L19.7312 13.8375C19.953 14.0038 20.2228 14.0938 20.5 14.0938H32.0312V16.6562H11.1741C10.6363 16.6562 10.112 16.8254 9.67569 17.1399C9.23935 17.4543 8.91302 17.8981 8.74293 18.4084L6.40625 25.4168V10.25H14.949ZM32.8865 32.0312H6.90273L11.1741 19.2188H37.1562L32.8865 32.0312Z" fill="#4D4D4D"/>
</svg>
