<svg width="25" height="25" viewBox="0 0 25 25" fill="none" xmlns="http://www.w3.org/2000/svg">
<rect x="16" y="16" width="3" height="5" rx="1" fill="#3CB64C"/>
<path d="M16 8H20C21.6569 8 23 9.34315 23 11V12C23 13.6569 21.6569 15 20 15H16V8Z" fill="#3CB64C"/>
<path d="M24.2188 11.7185C24.2175 10.4757 23.7232 9.2842 22.8444 8.4054C21.9656 7.52661 20.7741 7.03233 19.5312 7.03104H15.6445C15.3604 7.01444 10.4082 6.6658 5.69238 2.71073C5.46466 2.51947 5.18708 2.39717 4.89225 2.3582C4.59743 2.31923 4.29761 2.36521 4.02801 2.49073C3.75841 2.61624 3.53023 2.81609 3.37027 3.0668C3.21032 3.3175 3.12523 3.60865 3.125 3.90604V19.531C3.12504 19.8285 3.21 20.1198 3.36988 20.3706C3.52976 20.6215 3.75793 20.8215 4.02757 20.9471C4.2972 21.0728 4.5971 21.1188 4.89201 21.0799C5.18692 21.0409 5.46459 20.9186 5.69238 20.7273C9.38086 17.6336 13.2119 16.7469 14.8438 16.4988V19.5965C14.8434 19.8539 14.9067 20.1075 15.028 20.3346C15.1493 20.5617 15.3249 20.7553 15.5391 20.8982L16.6133 21.614C16.8209 21.7526 17.0587 21.8394 17.3068 21.8672C17.5549 21.895 17.806 21.863 18.0392 21.7737C18.2723 21.6845 18.4807 21.5407 18.6468 21.3544C18.813 21.1681 18.9321 20.9447 18.9941 20.7029L20.1436 16.3709C21.2712 16.2208 22.306 15.6664 23.0556 14.8107C23.8052 13.955 24.2185 12.8561 24.2188 11.7185ZM4.6875 19.5242V3.90604C8.86816 7.41287 13.1475 8.30057 14.8438 8.51932V14.9139C13.1494 15.1365 8.87109 16.0222 4.6875 19.5242ZM17.4805 20.3055V20.3162L16.4062 19.6004V16.406H18.5156L17.4805 20.3055ZM19.5312 14.8435H16.4062V8.59354H19.5312C20.3601 8.59354 21.1549 8.92278 21.741 9.50883C22.327 10.0949 22.6562 10.8897 22.6562 11.7185C22.6562 12.5473 22.327 13.3422 21.741 13.9282C21.1549 14.5143 20.3601 14.8435 19.5312 14.8435Z" fill="#4C9355"/>
</svg>
