<svg width="36" height="36" viewBox="0 0 36 36" fill="none" xmlns="http://www.w3.org/2000/svg">
<rect x="2.87988" y="8.63965" width="22.32" height="10.8" fill="white"/>
<path d="M35.9184 16.4531L33.9497 11.5312C33.7827 11.1148 33.4944 10.7581 33.1224 10.5074C32.7503 10.2567 32.3115 10.1235 31.8628 10.125H27V9C27 8.70163 26.8815 8.41548 26.6705 8.20451C26.4595 7.99353 26.1734 7.875 25.875 7.875H4.5C3.90326 7.875 3.33097 8.11205 2.90901 8.53401C2.48705 8.95597 2.25 9.52826 2.25 10.125V25.875C2.25 26.4717 2.48705 27.044 2.90901 27.466C3.33097 27.8879 3.90326 28.125 4.5 28.125H6.89062C7.13846 29.093 7.70141 29.9509 8.49072 30.5636C9.28003 31.1763 10.2508 31.5088 11.25 31.5088C12.2492 31.5088 13.22 31.1763 14.0093 30.5636C14.7986 29.9509 15.3615 29.093 15.6094 28.125H22.6406C22.8885 29.093 23.4514 29.9509 24.2407 30.5636C25.03 31.1763 26.0008 31.5088 27 31.5088C27.9992 31.5088 28.97 31.1763 29.7593 30.5636C30.5486 29.9509 31.1115 29.093 31.3594 28.125H33.75C34.3467 28.125 34.919 27.8879 35.341 27.466C35.7629 27.044 36 26.4717 36 25.875V16.875C36.0004 16.7304 35.9727 16.5871 35.9184 16.4531ZM27 12.375H31.8628L33.2128 15.75H27V12.375ZM4.5 10.125H24.75V19.125H4.5V10.125ZM11.25 29.25C10.805 29.25 10.37 29.118 9.99997 28.8708C9.62996 28.6236 9.34157 28.2722 9.17127 27.861C9.00097 27.4499 8.95642 26.9975 9.04323 26.561C9.13005 26.1246 9.34434 25.7237 9.65901 25.409C9.97368 25.0943 10.3746 24.88 10.811 24.7932C11.2475 24.7064 11.6999 24.751 12.111 24.9213C12.5222 25.0916 12.8736 25.38 13.1208 25.75C13.368 26.12 13.5 26.555 13.5 27C13.5 27.5967 13.2629 28.169 12.841 28.591C12.419 29.0129 11.8467 29.25 11.25 29.25ZM22.6406 25.875H15.6094C15.3615 24.907 14.7986 24.0491 14.0093 23.4364C13.22 22.8237 12.2492 22.4912 11.25 22.4912C10.2508 22.4912 9.28003 22.8237 8.49072 23.4364C7.70141 24.0491 7.13846 24.907 6.89062 25.875H4.5V21.375H24.75V23.1061C24.2327 23.4051 23.7799 23.8038 23.4178 24.2791C23.0557 24.7544 22.7915 25.2969 22.6406 25.875ZM27 29.25C26.555 29.25 26.12 29.118 25.75 28.8708C25.38 28.6236 25.0916 28.2722 24.9213 27.861C24.751 27.4499 24.7064 26.9975 24.7932 26.561C24.88 26.1246 25.0943 25.7237 25.409 25.409C25.7237 25.0943 26.1246 24.88 26.561 24.7932C26.9975 24.7064 27.4499 24.751 27.861 24.9213C28.2722 25.0916 28.6236 25.38 28.8708 25.75C29.118 26.12 29.25 26.555 29.25 27C29.25 27.5967 29.0129 28.169 28.591 28.591C28.169 29.0129 27.5967 29.25 27 29.25ZM33.75 25.875H31.3594C31.1086 24.9094 30.5445 24.0542 29.7557 23.4435C28.9668 22.8328 27.9977 22.5009 27 22.5V18H33.75V25.875Z" fill="white"/>
</svg>
